<svg xmlns="http://www.w3.org/2000/svg" xmlns:xlink="http://www.w3.org/1999/xlink" width="50" zoomAndPan="magnify" viewBox="0 0 37.5 37.499999" height="50" preserveAspectRatio="xMidYMid meet" version="1.0"><defs><clipPath id="02e27ccee8"><path d="M 0.832031 3.699219 L 36.359375 3.699219 L 36.359375 34.785156 L 0.832031 34.785156 Z M 0.832031 3.699219 " clip-rule="nonzero"/></clipPath></defs><g clip-path="url(#02e27ccee8)"><path fill="#b25499" d="M 18.5 35.007812 L 18.125 34.753906 C 18.082031 34.722656 13.777344 31.785156 9.539062 27.722656 C 7.039062 25.320312 5.039062 23 3.597656 20.824219 C 1.765625 18.042969 0.832031 15.460938 0.832031 13.171875 C 0.832031 7.957031 5.078125 3.710938 10.292969 3.710938 C 12.230469 3.710938 14.101562 4.304688 15.699219 5.4375 C 16.859375 6.253906 17.804688 7.300781 18.5 8.503906 C 19.191406 7.292969 20.136719 6.25 21.296875 5.4375 C 22.894531 4.304688 24.765625 3.710938 26.703125 3.710938 C 31.917969 3.710938 36.164062 7.957031 36.164062 13.171875 L 36.164062 13.179688 C 36.140625 15.457031 35.203125 18.011719 33.363281 20.789062 C 31.921875 22.964844 29.929688 25.285156 27.429688 27.691406 C 23.195312 31.769531 18.914062 34.722656 18.871094 34.753906 Z M 10.292969 5.03125 C 5.808594 5.03125 2.15625 8.6875 2.15625 13.171875 C 2.15625 15.199219 3.007812 17.527344 4.699219 20.082031 C 6.078125 22.175781 8.011719 24.421875 10.441406 26.753906 C 13.882812 30.054688 17.375 32.605469 18.5 33.394531 C 19.621094 32.597656 23.089844 30.03125 26.523438 26.726562 C 28.949219 24.386719 30.878906 22.148438 32.261719 20.054688 C 33.953125 17.496094 34.820312 15.1875 34.835938 13.171875 C 34.835938 8.6875 31.179688 5.039062 26.695312 5.039062 C 23.367188 5.039062 20.320312 7.144531 19.105469 10.28125 L 18.492188 11.878906 L 17.882812 10.28125 C 16.667969 7.144531 13.621094 5.03125 10.292969 5.03125 Z M 10.292969 5.03125 " fill-opacity="1" fill-rule="nonzero"/></g><path fill="#b25499" d="M 35.28125 11.996094 C 33.371094 2.167969 21.394531 2.003906 18.441406 11.191406 C 15.488281 2.003906 3.511719 2.167969 1.601562 11.996094 C -0.132812 20.910156 18.441406 34.976562 18.441406 34.976562 C 18.441406 34.976562 37.015625 20.910156 35.28125 11.996094 Z M 35.28125 11.996094 " fill-opacity="1" fill-rule="nonzero"/></svg>