<svg xmlns="http://www.w3.org/2000/svg" xmlns:xlink="http://www.w3.org/1999/xlink" width="500" zoomAndPan="magnify" viewBox="0 0 375 374.999991" height="500" preserveAspectRatio="xMidYMid meet" version="1.0"><defs><clipPath id="b3cde84718"><path d="M 94 54.320312 L 281 54.320312 L 281 168.914062 L 94 168.914062 Z M 94 54.320312 " clip-rule="nonzero"/></clipPath><clipPath id="c0a092392e"><path d="M 89.425781 -7.382812 L 370.523438 134.210938 L 285.617188 302.765625 L 4.523438 161.171875 Z M 89.425781 -7.382812 " clip-rule="nonzero"/></clipPath><clipPath id="7915856411"><path d="M 89.425781 -7.382812 L 370.523438 134.210938 L 285.617188 302.765625 L 4.523438 161.171875 Z M 89.425781 -7.382812 " clip-rule="nonzero"/></clipPath><clipPath id="e84dc6d4db"><path d="M 107 195.238281 L 268 195.238281 L 268 241.695312 L 107 241.695312 Z M 107 195.238281 " clip-rule="nonzero"/></clipPath><clipPath id="0eddf5a215"><path d="M 89.425781 -7.382812 L 370.523438 134.210938 L 285.617188 302.765625 L 4.523438 161.171875 Z M 89.425781 -7.382812 " clip-rule="nonzero"/></clipPath><clipPath id="58d9afd646"><path d="M 89.425781 -7.382812 L 370.523438 134.210938 L 285.617188 302.765625 L 4.523438 161.171875 Z M 89.425781 -7.382812 " clip-rule="nonzero"/></clipPath><clipPath id="b3a71e69f2"><path d="M 141.953125 126.203125 L 271.25 191.332031 L 228.773438 275.65625 L 99.476562 210.527344 Z M 141.953125 126.203125 " clip-rule="nonzero"/></clipPath><clipPath id="6be89954b8"><path d="M 141.953125 126.203125 L 271.25 191.332031 L 229.824219 273.570312 L 100.527344 208.441406 Z M 141.953125 126.203125 " clip-rule="nonzero"/></clipPath><clipPath id="a3c7eb140d"><path d="M 10.957031 120.132812 L 360.933594 120.132812 L 360.933594 189.820312 L 10.957031 189.820312 Z M 10.957031 120.132812 " clip-rule="nonzero"/></clipPath><clipPath id="1271a53ffc"><path d="M 89.425781 -7.382812 L 370.523438 134.210938 L 285.617188 302.765625 L 4.523438 161.171875 Z M 89.425781 -7.382812 " clip-rule="nonzero"/></clipPath><clipPath id="cb6d25a3e6"><path d="M 89.425781 -7.382812 L 370.523438 134.210938 L 285.617188 302.765625 L 4.523438 161.171875 Z M 89.425781 -7.382812 " clip-rule="nonzero"/></clipPath><clipPath id="e53d52d979"><path d="M 86.03125 -0.636719 L 367.109375 140.949219 L 284.988281 303.972656 L 3.910156 162.386719 Z M 86.03125 -0.636719 " clip-rule="nonzero"/></clipPath><clipPath id="b2d3c3e7d3"><path d="M 86.03125 -0.636719 L 367.109375 140.949219 L 286.039062 301.890625 L 4.960938 160.300781 Z M 86.03125 -0.636719 " clip-rule="nonzero"/></clipPath><clipPath id="e2f1486345"><path d="M 93.886719 57.859375 L 281.183594 57.859375 L 281.183594 239.035156 L 93.886719 239.035156 Z M 93.886719 57.859375 " clip-rule="nonzero"/></clipPath><clipPath id="f3232e3ec4"><path d="M 187.519531 57.859375 C 135.808594 57.859375 93.886719 98.417969 93.886719 148.445312 C 93.886719 198.476562 135.808594 239.035156 187.519531 239.035156 C 239.234375 239.035156 281.15625 198.476562 281.15625 148.445312 C 281.15625 98.417969 239.234375 57.859375 187.519531 57.859375 Z M 187.519531 57.859375 " clip-rule="nonzero"/></clipPath><clipPath id="7ead125215"><path d="M 112.046875 72.292969 L 262.941406 72.292969 L 262.941406 223.183594 L 112.046875 223.183594 Z M 112.046875 72.292969 " clip-rule="nonzero"/></clipPath><clipPath id="136064d1ac"><path d="M 187.496094 72.292969 C 145.828125 72.292969 112.046875 106.070312 112.046875 147.734375 C 112.046875 189.402344 145.828125 223.183594 187.496094 223.183594 C 229.160156 223.183594 262.941406 189.402344 262.941406 147.734375 C 262.941406 106.070312 229.160156 72.292969 187.496094 72.292969 Z M 187.496094 72.292969 " clip-rule="nonzero"/></clipPath><clipPath id="08c72d8a2c"><path d="M 127.273438 87.515625 L 247.714844 87.515625 L 247.714844 207.957031 L 127.273438 207.957031 Z M 127.273438 87.515625 " clip-rule="nonzero"/></clipPath><clipPath id="ca32c90757"><path d="M 187.496094 87.515625 C 154.234375 87.515625 127.273438 114.476562 127.273438 147.734375 C 127.273438 180.996094 154.234375 207.957031 187.496094 207.957031 C 220.753906 207.957031 247.714844 180.996094 247.714844 147.734375 C 247.714844 114.476562 220.753906 87.515625 187.496094 87.515625 Z M 187.496094 87.515625 " clip-rule="nonzero"/></clipPath><clipPath id="7a597929e6"><path d="M 141.414062 101.652344 L 233.574219 101.652344 L 233.574219 193.816406 L 141.414062 193.816406 Z M 141.414062 101.652344 " clip-rule="nonzero"/></clipPath><clipPath id="6e8ba28047"><path d="M 187.496094 101.652344 C 162.042969 101.652344 141.414062 122.285156 141.414062 147.734375 C 141.414062 173.1875 162.042969 193.816406 187.496094 193.816406 C 212.945312 193.816406 233.574219 173.1875 233.574219 147.734375 C 233.574219 122.285156 212.945312 101.652344 187.496094 101.652344 Z M 187.496094 101.652344 " clip-rule="nonzero"/></clipPath></defs><g clip-path="url(#b3cde84718)"><g clip-path="url(#c0a092392e)"><g clip-path="url(#7915856411)"><path fill="#0f0d0e" d="M 101.792969 168.660156 C 97 148.984375 98.832031 127.578125 108.644531 108.101562 C 130.535156 64.644531 183.699219 47.101562 227.15625 68.992188 C 264.488281 87.796875 282.617188 129.691406 273.109375 168.675781 C 274.902344 168.449219 276.664062 168.234375 278.378906 168 C 287.40625 127.339844 268.257812 84.078125 229.414062 64.511719 C 183.472656 41.371094 127.292969 59.929688 104.164062 105.84375 C 94.109375 125.808594 91.945312 147.703125 96.460938 167.984375 C 98.207031 168.234375 99.996094 168.445312 101.792969 168.660156 " fill-opacity="1" fill-rule="nonzero"/></g></g></g><g clip-path="url(#e84dc6d4db)"><g clip-path="url(#0eddf5a215)"><g clip-path="url(#58d9afd646)"><g clip-path="url(#b3a71e69f2)"><g clip-path="url(#6be89954b8)"><path fill="#0f0d0e" d="M 147.757812 226.613281 C 133.480469 219.425781 122.078125 208.832031 113.859375 196.351562 C 111.726562 196.15625 109.65625 195.941406 107.570312 195.714844 C 116.324219 210.367188 129.140625 222.851562 145.5 231.09375 C 189.355469 253.183594 242.5 237.199219 267.355469 195.730469 C 265.265625 195.941406 263.199219 196.171875 261.0625 196.359375 C 236.792969 233.222656 188.097656 246.933594 147.757812 226.613281 " fill-opacity="1" fill-rule="nonzero"/></g></g></g></g></g><g clip-path="url(#a3c7eb140d)"><g clip-path="url(#1271a53ffc)"><g clip-path="url(#cb6d25a3e6)"><g clip-path="url(#e53d52d979)"><g clip-path="url(#b2d3c3e7d3)"><path fill="#0f0d0e" d="M 360.335938 151.824219 C 360.40625 136.386719 326.445312 127.015625 297.980469 121.871094 C 296.285156 121.570312 294.675781 122.6875 294.386719 124.359375 C 294.085938 126.050781 295.179688 127.648438 296.871094 127.953125 C 339.207031 135.566406 354.1875 145.5625 354.167969 151.828125 C 354.167969 158.273438 338.527344 168.398438 294.464844 175.742188 C 263.957031 180.886719 225.296875 183.628906 185.601562 183.511719 C 147.246094 183.410156 111.1875 180.773438 81.335938 175.921875 C 33.890625 168.292969 17.121094 157.699219 17.140625 150.933594 C 17.160156 144.339844 33.375 134.007812 79.097656 126.640625 C 80.769531 126.382812 81.929688 124.792969 81.648438 123.109375 C 81.367188 121.425781 79.800781 120.277344 78.117188 120.558594 C 47.5 125.480469 11 134.761719 10.984375 150.917969 C 10.953125 157.316406 16.640625 162.6875 25.492188 167.148438 C 39.371094 174.136719 61.007812 178.898438 80.363281 182.011719 C 110.511719 186.929688 146.898438 189.566406 185.574219 189.691406 C 225.597656 189.8125 264.644531 187.015625 295.492188 181.847656 C 325.039062 176.914062 360.320312 167.703125 360.335938 151.824219 " fill-opacity="1" fill-rule="nonzero"/></g></g></g></g></g><g clip-path="url(#e2f1486345)"><g clip-path="url(#f3232e3ec4)"><path fill="#0f0d0e" d="M 93.886719 57.859375 L 281.425781 57.859375 L 281.425781 239.035156 L 93.886719 239.035156 Z M 93.886719 57.859375 " fill-opacity="1" fill-rule="nonzero"/></g></g><g clip-path="url(#7ead125215)"><g clip-path="url(#136064d1ac)"><path fill="#10a3b7" d="M 112.046875 72.292969 L 262.941406 72.292969 L 262.941406 223.183594 L 112.046875 223.183594 Z M 112.046875 72.292969 " fill-opacity="1" fill-rule="nonzero"/></g></g><g clip-path="url(#08c72d8a2c)"><g clip-path="url(#ca32c90757)"><path fill="#fab354" d="M 127.273438 87.515625 L 247.714844 87.515625 L 247.714844 207.957031 L 127.273438 207.957031 Z M 127.273438 87.515625 " fill-opacity="1" fill-rule="nonzero"/></g></g><path fill="#000000" d="M 50.808594 332.984375 L 56.246094 332.984375 L 56.171875 309.667969 C 56.171875 309.667969 60.132812 317.441406 68.292969 317.441406 C 91.917969 317.441406 91.144531 278.582031 68.292969 278.582031 C 59.355469 278.582031 56.246094 286.355469 56.246094 286.355469 L 56.246094 278.582031 L 50.808594 278.582031 Z M 56.949219 295.679688 C 57.179688 290.628906 61.300781 284.023438 68.292969 284.023438 C 84.84375 284.023438 83.914062 312 68.292969 312 C 61.53125 312 56.949219 306.40625 56.949219 300.34375 Z M 56.949219 295.679688 " fill-opacity="1" fill-rule="nonzero"/><path fill="#000000" d="M 93.472656 317.441406 L 98.910156 317.441406 L 98.910156 263.039062 L 93.472656 263.039062 Z M 93.472656 317.441406 " fill-opacity="1" fill-rule="nonzero"/><path fill="#000000" d="M 138.003906 294.125 C 138.003906 284.800781 131.785156 277.574219 122.460938 277.574219 C 114.453125 277.574219 108.785156 282.160156 107.304688 289.308594 L 112.980469 289.308594 C 114.300781 285.425781 117.796875 283.015625 122.460938 283.015625 C 126.113281 283.015625 128.753906 284.410156 130.773438 287.054688 C 136.214844 294.050781 121.996094 294.125 118.808594 294.125 C 118.730469 294.125 118.652344 294.125 118.574219 294.125 C 102.878906 294.125 102.644531 317.210938 118.574219 317.363281 C 128.441406 317.441406 131.320312 310.058594 132.328125 308.894531 L 132.328125 310.445312 C 132.328125 312.777344 132.5625 317.441406 137.769531 317.441406 L 141.65625 317.441406 L 141.65625 312 L 141.191406 312 C 138.46875 312 138.082031 311.847656 138.003906 308.816406 Z M 118.339844 311.925781 C 110.726562 311.925781 110.261719 299.566406 118.574219 299.566406 C 131.632812 299.566406 132.5625 297.160156 132.5625 297.160156 L 132.5625 298.789062 C 132.5625 301.898438 130.230469 311.925781 118.574219 311.925781 Z M 118.339844 311.925781 " fill-opacity="1" fill-rule="nonzero"/><path fill="#000000" d="M 149.429688 278.582031 L 149.429688 317.441406 L 154.867188 317.441406 L 154.867188 298.011719 C 154.867188 291.953125 160.464844 284.023438 167.304688 284.023438 C 172.742188 284.023438 175.074219 288.066406 175.074219 294.125 L 175.074219 317.441406 L 180.515625 317.441406 L 180.515625 294.125 C 180.515625 284.800781 176.628906 278.582031 167.304688 278.582031 C 159.996094 278.582031 155.335938 286.355469 154.867188 288.6875 L 154.867188 278.582031 Z M 149.429688 278.582031 " fill-opacity="1" fill-rule="nonzero"/><path fill="#000000" d="M 194.035156 317.441406 L 194.035156 278.582031 L 188.597656 278.582031 L 188.597656 317.441406 Z M 191.394531 270.8125 C 193.726562 270.8125 195.28125 269.257812 195.28125 266.925781 C 195.28125 264.59375 193.726562 263.039062 191.394531 263.039062 C 189.0625 263.039062 187.507812 264.59375 187.507812 266.925781 C 187.507812 269.257812 189.0625 270.8125 191.394531 270.8125 Z M 191.394531 270.8125 " fill-opacity="1" fill-rule="nonzero"/><path fill="#000000" d="M 232.582031 286.355469 C 232.582031 286.355469 228.695312 278.582031 220.535156 278.582031 C 196.832031 278.582031 197.609375 317.441406 220.535156 317.441406 C 229.472656 317.441406 232.503906 309.667969 232.503906 309.667969 L 232.503906 317.441406 L 237.945312 317.441406 L 237.945312 263.039062 L 232.582031 263.039062 Z M 231.886719 300.34375 C 231.652344 305.394531 227.453125 312 220.535156 312 C 203.984375 312 204.839844 284.023438 220.535156 284.023438 C 227.300781 284.023438 231.886719 289.621094 231.886719 295.679688 Z M 231.886719 300.34375 " fill-opacity="1" fill-rule="nonzero"/><path fill="#000000" d="M 263.59375 312 C 255.742188 312 250.300781 307.109375 249.679688 299.488281 L 283.023438 299.488281 C 283.023438 287.832031 275.25 278.582031 263.59375 278.582031 C 251.933594 278.582031 244.164062 286.355469 244.164062 298.011719 C 244.164062 309.667969 251.933594 317.441406 263.59375 317.441406 C 270.664062 317.441406 276.335938 314.566406 279.679688 309.667969 L 274.9375 306.796875 C 272.449219 310.058594 268.488281 312 263.59375 312 Z M 250.070312 294.125 C 251.546875 287.910156 256.597656 284.023438 263.59375 284.023438 C 270.585938 284.023438 275.714844 287.910156 277.113281 294.125 Z M 250.070312 294.125 " fill-opacity="1" fill-rule="nonzero"/><path fill="#000000" d="M 320.558594 294.125 C 320.558594 284.800781 314.339844 277.574219 305.011719 277.574219 C 297.007812 277.574219 291.335938 282.160156 289.859375 289.308594 L 295.53125 289.308594 C 296.851562 285.425781 300.351562 283.015625 305.011719 283.015625 C 308.667969 283.015625 311.308594 284.410156 313.328125 287.054688 C 318.769531 294.050781 304.546875 294.125 301.359375 294.125 C 301.285156 294.125 301.207031 294.125 301.128906 294.125 C 285.429688 294.125 285.195312 317.210938 301.128906 317.363281 C 310.996094 317.441406 313.871094 310.058594 314.882812 308.894531 L 314.882812 310.445312 C 314.882812 312.777344 315.117188 317.441406 320.324219 317.441406 L 324.210938 317.441406 L 324.210938 312 L 323.746094 312 C 321.023438 312 320.636719 311.847656 320.558594 308.816406 Z M 300.894531 311.925781 C 293.277344 311.925781 292.8125 299.566406 301.128906 299.566406 C 314.183594 299.566406 315.117188 297.160156 315.117188 297.160156 L 315.117188 298.789062 C 315.117188 301.898438 312.785156 311.925781 301.128906 311.925781 Z M 300.894531 311.925781 " fill-opacity="1" fill-rule="nonzero"/><g clip-path="url(#7a597929e6)"><g clip-path="url(#6e8ba28047)"><path fill="#b25499" d="M 141.414062 101.652344 L 233.574219 101.652344 L 233.574219 193.816406 L 141.414062 193.816406 Z M 141.414062 101.652344 " fill-opacity="1" fill-rule="nonzero"/></g></g></svg>