<svg xmlns="http://www.w3.org/2000/svg" xmlns:xlink="http://www.w3.org/1999/xlink" width="500" zoomAndPan="magnify" viewBox="0 0 375 374.999991" height="500" preserveAspectRatio="xMidYMid meet" version="1.0"><defs><clipPath id="beea33845c"><path d="M 94 54.222656 L 281 54.222656 L 281 168.738281 L 94 168.738281 Z M 94 54.222656 " clip-rule="nonzero"/></clipPath><clipPath id="a4746f0dba"><path d="M 89.390625 -7.4375 L 370.464844 134.0625 L 285.566406 302.5 L 4.492188 161 Z M 89.390625 -7.4375 " clip-rule="nonzero"/></clipPath><clipPath id="02b798131d"><path d="M 89.390625 -7.4375 L 370.464844 134.0625 L 285.566406 302.5 L 4.492188 161 Z M 89.390625 -7.4375 " clip-rule="nonzero"/></clipPath><clipPath id="bffa550c9a"><path d="M 107 195.042969 L 267.96875 195.042969 L 267.96875 241 L 107 241 Z M 107 195.042969 " clip-rule="nonzero"/></clipPath><clipPath id="7902753801"><path d="M 89.390625 -7.4375 L 370.464844 134.0625 L 285.566406 302.5 L 4.492188 161 Z M 89.390625 -7.4375 " clip-rule="nonzero"/></clipPath><clipPath id="45755dc611"><path d="M 89.390625 -7.4375 L 370.464844 134.0625 L 285.566406 302.5 L 4.492188 161 Z M 89.390625 -7.4375 " clip-rule="nonzero"/></clipPath><clipPath id="d4f5c83d38"><path d="M 141.914062 126.058594 L 271.199219 191.144531 L 228.726562 275.410156 L 99.441406 210.324219 Z M 141.914062 126.058594 " clip-rule="nonzero"/></clipPath><clipPath id="629b47fd55"><path d="M 141.914062 126.058594 L 271.199219 191.144531 L 229.777344 273.324219 L 100.488281 208.238281 Z M 141.914062 126.058594 " clip-rule="nonzero"/></clipPath><clipPath id="be6880413d"><path d="M 10.929688 120 L 360.875 120 L 360.875 189.628906 L 10.929688 189.628906 Z M 10.929688 120 " clip-rule="nonzero"/></clipPath><clipPath id="8637240ef0"><path d="M 89.390625 -7.4375 L 370.464844 134.0625 L 285.566406 302.5 L 4.492188 161 Z M 89.390625 -7.4375 " clip-rule="nonzero"/></clipPath><clipPath id="75a0125ec7"><path d="M 89.390625 -7.4375 L 370.464844 134.0625 L 285.566406 302.5 L 4.492188 161 Z M 89.390625 -7.4375 " clip-rule="nonzero"/></clipPath><clipPath id="593d257ddb"><path d="M 85.996094 -0.699219 L 367.050781 140.792969 L 284.9375 303.707031 L 3.882812 162.214844 Z M 85.996094 -0.699219 " clip-rule="nonzero"/></clipPath><clipPath id="8c2ecca186"><path d="M 85.996094 -0.699219 L 367.050781 140.792969 L 285.988281 301.621094 L 4.933594 160.128906 Z M 85.996094 -0.699219 " clip-rule="nonzero"/></clipPath><clipPath id="b036247b1b"><path d="M 93.847656 57.757812 L 281.128906 57.757812 L 281.128906 238.808594 L 93.847656 238.808594 Z M 93.847656 57.757812 " clip-rule="nonzero"/></clipPath><clipPath id="db4311d522"><path d="M 187.476562 57.757812 C 135.769531 57.757812 93.847656 98.289062 93.847656 148.285156 C 93.847656 198.277344 135.769531 238.808594 187.476562 238.808594 C 239.1875 238.808594 281.101562 198.277344 281.101562 148.285156 C 281.101562 98.289062 239.1875 57.757812 187.476562 57.757812 Z M 187.476562 57.757812 " clip-rule="nonzero"/></clipPath><clipPath id="11e900241e"><path d="M 112.007812 72.183594 L 262.890625 72.183594 L 262.890625 222.96875 L 112.007812 222.96875 Z M 112.007812 72.183594 " clip-rule="nonzero"/></clipPath><clipPath id="dba6023d52"><path d="M 187.449219 72.183594 C 145.789062 72.183594 112.007812 105.9375 112.007812 147.574219 C 112.007812 189.214844 145.789062 222.96875 187.449219 222.96875 C 229.113281 222.96875 262.890625 189.214844 262.890625 147.574219 C 262.890625 105.9375 229.113281 72.183594 187.449219 72.183594 Z M 187.449219 72.183594 " clip-rule="nonzero"/></clipPath><clipPath id="28c3e46a6b"><path d="M 127.234375 87.394531 L 247.667969 87.394531 L 247.667969 207.753906 L 127.234375 207.753906 Z M 127.234375 87.394531 " clip-rule="nonzero"/></clipPath><clipPath id="92d493ed61"><path d="M 187.449219 87.394531 C 154.191406 87.394531 127.234375 114.339844 127.234375 147.574219 C 127.234375 180.8125 154.191406 207.753906 187.449219 207.753906 C 220.707031 207.753906 247.667969 180.8125 247.667969 147.574219 C 247.667969 114.339844 220.707031 87.394531 187.449219 87.394531 Z M 187.449219 87.394531 " clip-rule="nonzero"/></clipPath><clipPath id="6056d630b2"><path d="M 141.371094 101.523438 L 233.527344 101.523438 L 233.527344 193.625 L 141.371094 193.625 Z M 141.371094 101.523438 " clip-rule="nonzero"/></clipPath><clipPath id="4698b93374"><path d="M 187.449219 101.523438 C 162 101.523438 141.371094 122.144531 141.371094 147.574219 C 141.371094 173.007812 162 193.625 187.449219 193.625 C 212.898438 193.625 233.527344 173.007812 233.527344 147.574219 C 233.527344 122.144531 212.898438 101.523438 187.449219 101.523438 Z M 187.449219 101.523438 " clip-rule="nonzero"/></clipPath></defs><g clip-path="url(#beea33845c)"><g clip-path="url(#a4746f0dba)"><g clip-path="url(#02b798131d)"><path fill="#0f0d0e" d="M 101.753906 168.484375 C 96.964844 148.824219 98.796875 127.433594 108.605469 107.96875 C 130.496094 64.539062 183.65625 47.007812 227.109375 68.882812 C 264.4375 87.675781 282.5625 129.542969 273.058594 168.5 C 274.851562 168.273438 276.613281 168.058594 278.328125 167.824219 C 287.355469 127.195312 268.207031 83.960938 229.367188 64.40625 C 183.429688 41.28125 127.253906 59.828125 104.128906 105.714844 C 94.074219 125.660156 91.910156 147.542969 96.421875 167.808594 C 98.171875 168.058594 99.960938 168.273438 101.753906 168.484375 " fill-opacity="1" fill-rule="nonzero"/></g></g></g><g clip-path="url(#bffa550c9a)"><g clip-path="url(#7902753801)"><g clip-path="url(#45755dc611)"><g clip-path="url(#d4f5c83d38)"><g clip-path="url(#629b47fd55)"><path fill="#0f0d0e" d="M 147.71875 226.398438 C 133.441406 219.214844 122.042969 208.628906 113.820312 196.15625 C 111.6875 195.964844 109.621094 195.75 107.535156 195.523438 C 116.285156 210.164062 129.101562 222.640625 145.460938 230.875 C 189.308594 252.953125 242.453125 236.976562 267.304688 195.539062 C 265.214844 195.75 263.148438 195.976562 261.011719 196.167969 C 236.746094 233.003906 188.050781 246.703125 147.71875 226.398438 " fill-opacity="1" fill-rule="nonzero"/></g></g></g></g></g><g clip-path="url(#be6880413d)"><g clip-path="url(#8637240ef0)"><g clip-path="url(#75a0125ec7)"><g clip-path="url(#593d257ddb)"><g clip-path="url(#8c2ecca186)"><path fill="#0f0d0e" d="M 360.277344 151.660156 C 360.347656 136.234375 326.390625 126.871094 297.925781 121.730469 C 296.234375 121.425781 294.625 122.546875 294.335938 124.214844 C 294.03125 125.902344 295.128906 127.5 296.820312 127.804688 C 339.152344 135.410156 354.128906 145.402344 354.113281 151.664062 C 354.113281 158.105469 338.472656 168.222656 294.414062 175.5625 C 263.90625 180.703125 225.25 183.445312 185.558594 183.328125 C 147.207031 183.222656 111.152344 180.589844 81.300781 175.742188 C 33.859375 168.117188 17.089844 157.53125 17.109375 150.773438 C 17.128906 144.179688 33.34375 133.855469 79.0625 126.496094 C 80.734375 126.234375 81.894531 124.644531 81.613281 122.964844 C 81.332031 121.28125 79.765625 120.136719 78.082031 120.417969 C 47.464844 125.335938 10.96875 134.609375 10.953125 150.753906 C 10.921875 157.148438 16.613281 162.515625 25.460938 166.972656 C 39.339844 173.957031 60.976562 178.714844 80.328125 181.828125 C 110.472656 186.742188 146.859375 189.378906 185.53125 189.5 C 225.550781 189.621094 264.59375 186.828125 295.4375 181.664062 C 324.984375 176.730469 360.265625 167.527344 360.277344 151.660156 " fill-opacity="1" fill-rule="nonzero"/></g></g></g></g></g><g clip-path="url(#b036247b1b)"><g clip-path="url(#db4311d522)"><path fill="#0f0d0e" d="M 93.847656 57.757812 L 281.375 57.757812 L 281.375 238.808594 L 93.847656 238.808594 Z M 93.847656 57.757812 " fill-opacity="1" fill-rule="nonzero"/></g></g><g clip-path="url(#11e900241e)"><g clip-path="url(#dba6023d52)"><path fill="#26c1cd" d="M 112.007812 72.183594 L 262.890625 72.183594 L 262.890625 222.96875 L 112.007812 222.96875 Z M 112.007812 72.183594 " fill-opacity="1" fill-rule="nonzero"/></g></g><g clip-path="url(#28c3e46a6b)"><g clip-path="url(#92d493ed61)"><path fill="#fab354" d="M 127.234375 87.394531 L 247.667969 87.394531 L 247.667969 207.753906 L 127.234375 207.753906 Z M 127.234375 87.394531 " fill-opacity="1" fill-rule="nonzero"/></g></g><path fill="#000000" d="M 50.773438 332.699219 L 56.210938 332.699219 L 56.136719 309.398438 C 56.136719 309.398438 60.097656 317.164062 68.257812 317.164062 C 91.882812 317.164062 91.105469 278.332031 68.257812 278.332031 C 59.320312 278.332031 56.210938 286.101562 56.210938 286.101562 L 56.210938 278.332031 L 50.773438 278.332031 Z M 56.914062 295.417969 C 57.148438 290.371094 61.265625 283.769531 68.257812 283.769531 C 84.808594 283.769531 83.878906 311.726562 68.257812 311.726562 C 61.5 311.726562 56.914062 306.136719 56.914062 300.078125 Z M 56.914062 295.417969 " fill-opacity="1" fill-rule="nonzero"/><path fill="#000000" d="M 93.4375 317.164062 L 98.875 317.164062 L 98.875 262.800781 L 93.4375 262.800781 Z M 93.4375 317.164062 " fill-opacity="1" fill-rule="nonzero"/><path fill="#000000" d="M 137.964844 293.867188 C 137.964844 284.546875 131.746094 277.324219 122.421875 277.324219 C 114.417969 277.324219 108.746094 281.90625 107.265625 289.050781 L 112.941406 289.050781 C 114.261719 285.171875 117.757812 282.761719 122.421875 282.761719 C 126.074219 282.761719 128.714844 284.15625 130.734375 286.800781 C 136.175781 293.789062 121.957031 293.867188 118.769531 293.867188 C 118.691406 293.867188 118.613281 293.867188 118.535156 293.867188 C 102.839844 293.867188 102.605469 316.933594 118.535156 317.085938 C 128.402344 317.164062 131.28125 309.789062 132.289062 308.625 L 132.289062 310.175781 C 132.289062 312.503906 132.523438 317.164062 137.730469 317.164062 L 141.617188 317.164062 L 141.617188 311.726562 L 141.152344 311.726562 C 138.429688 311.726562 138.042969 311.574219 137.964844 308.546875 Z M 118.304688 311.652344 C 110.6875 311.652344 110.222656 299.304688 118.535156 299.304688 C 131.589844 299.304688 132.523438 296.898438 132.523438 296.898438 L 132.523438 298.527344 C 132.523438 301.632812 130.191406 311.652344 118.535156 311.652344 Z M 118.304688 311.652344 " fill-opacity="1" fill-rule="nonzero"/><path fill="#000000" d="M 149.386719 278.332031 L 149.386719 317.164062 L 154.824219 317.164062 L 154.824219 297.75 C 154.824219 291.691406 160.421875 283.769531 167.261719 283.769531 C 172.699219 283.769531 175.03125 287.808594 175.03125 293.867188 L 175.03125 317.164062 L 180.472656 317.164062 L 180.472656 293.867188 C 180.472656 284.546875 176.585938 278.332031 167.261719 278.332031 C 159.953125 278.332031 155.292969 286.101562 154.824219 288.429688 L 154.824219 278.332031 Z M 149.386719 278.332031 " fill-opacity="1" fill-rule="nonzero"/><path fill="#000000" d="M 193.992188 317.164062 L 193.992188 278.332031 L 188.554688 278.332031 L 188.554688 317.164062 Z M 191.351562 270.570312 C 193.679688 270.570312 195.234375 269.015625 195.234375 266.683594 C 195.234375 264.355469 193.679688 262.800781 191.351562 262.800781 C 189.019531 262.800781 187.464844 264.355469 187.464844 266.683594 C 187.464844 269.015625 189.019531 270.570312 191.351562 270.570312 Z M 191.351562 270.570312 " fill-opacity="1" fill-rule="nonzero"/><path fill="#000000" d="M 232.535156 286.101562 C 232.535156 286.101562 228.648438 278.332031 220.492188 278.332031 C 196.789062 278.332031 197.566406 317.164062 220.492188 317.164062 C 229.425781 317.164062 232.457031 309.398438 232.457031 309.398438 L 232.457031 317.164062 L 237.898438 317.164062 L 237.898438 262.800781 L 232.535156 262.800781 Z M 231.835938 300.078125 C 231.605469 305.128906 227.40625 311.726562 220.492188 311.726562 C 203.9375 311.726562 204.792969 283.769531 220.492188 283.769531 C 227.253906 283.769531 231.835938 289.363281 231.835938 295.417969 Z M 231.835938 300.078125 " fill-opacity="1" fill-rule="nonzero"/><path fill="#000000" d="M 263.542969 311.726562 C 255.691406 311.726562 250.253906 306.839844 249.628906 299.222656 L 282.96875 299.222656 C 282.96875 287.574219 275.199219 278.332031 263.542969 278.332031 C 251.882812 278.332031 244.113281 286.101562 244.113281 297.75 C 244.113281 309.398438 251.882812 317.164062 263.542969 317.164062 C 270.613281 317.164062 276.285156 314.292969 279.628906 309.398438 L 274.886719 306.527344 C 272.402344 309.789062 268.4375 311.726562 263.542969 311.726562 Z M 250.019531 293.867188 C 251.496094 287.65625 256.546875 283.769531 263.542969 283.769531 C 270.535156 283.769531 275.664062 287.65625 277.0625 293.867188 Z M 250.019531 293.867188 " fill-opacity="1" fill-rule="nonzero"/><path fill="#000000" d="M 320.503906 293.867188 C 320.503906 284.546875 314.285156 277.324219 304.960938 277.324219 C 296.957031 277.324219 291.285156 281.90625 289.804688 289.050781 L 295.480469 289.050781 C 296.800781 285.171875 300.296875 282.761719 304.960938 282.761719 C 308.613281 282.761719 311.253906 284.15625 313.273438 286.800781 C 318.714844 293.789062 304.496094 293.867188 301.308594 293.867188 C 301.230469 293.867188 301.152344 293.867188 301.074219 293.867188 C 285.378906 293.867188 285.144531 316.933594 301.074219 317.085938 C 310.941406 317.164062 313.820312 309.789062 314.828125 308.625 L 314.828125 310.175781 C 314.828125 312.503906 315.0625 317.164062 320.269531 317.164062 L 324.15625 317.164062 L 324.15625 311.726562 L 323.691406 311.726562 C 320.96875 311.726562 320.582031 311.574219 320.503906 308.546875 Z M 300.839844 311.652344 C 293.226562 311.652344 292.761719 299.304688 301.074219 299.304688 C 314.128906 299.304688 315.0625 296.898438 315.0625 296.898438 L 315.0625 298.527344 C 315.0625 301.632812 312.730469 311.652344 301.074219 311.652344 Z M 300.839844 311.652344 " fill-opacity="1" fill-rule="nonzero"/><g clip-path="url(#6056d630b2)"><g clip-path="url(#4698b93374)"><path fill="#b25499" d="M 141.371094 101.523438 L 233.527344 101.523438 L 233.527344 193.625 L 141.371094 193.625 Z M 141.371094 101.523438 " fill-opacity="1" fill-rule="nonzero"/></g></g></svg>