<?xml version="1.0" encoding="utf-8"?>
<!-- Generator: Adobe Illustrator 26.3.1, SVG Export Plug-In . SVG Version: 6.00 Build 0)  -->
<svg version="1.1" id="圖層_1" xmlns="http://www.w3.org/2000/svg" xmlns:xlink="http://www.w3.org/1999/xlink" x="0px" y="0px"
	 width="2500px" height="2261.1px" viewBox="0 0 2500 2261.1" style="enable-background:new 0 0 2500 2261.1;" xml:space="preserve"
	>
<g>
	<g>
		<path style="fill:#FFB636;" d="M1665.6,1593.6L167.9,2254.4c-52.5,15-96.2,5-131.2-30c-35-35-45-79.9-30-131.2l652-1515.2
			L1665.6,1593.6z"/>
		<path style="fill:#FFD469;" d="M39.2,2230.6C1.7,2193.2-8.2,2147,6.7,2092l55-124.9l13.7-18.7
			c264.8-409.7,538.4-813.2,818.2-1211.7l314.8,324.8c-142.4,104.9-346,292.3-612.1,564.6C329,1897.1,142.9,2098.2,39.2,2230.6
			L39.2,2230.6z"/>
		<path style="fill:#A06C33;" d="M1369.5,881.6c144.9,147.4,249.8,286,317.3,416c66.2,129.9,77.4,218.6,35,268.6
			c-52.5,46.2-143.6,36.2-272.3-30c-129.9-66.2-267.3-172.4-413.5-318.5c-147.4-147.4-253.6-286-319.8-414.7
			c-66.2-129.9-77.4-219.8-35-272.3c52.5-43.7,143.6-32.5,272.3,32.5C1083.5,626.8,1222.1,732.9,1369.5,881.6z"/>
	</g>
	<g id="XMLID_340_">
		<g>
			<path id="XMLID_15_" style="fill:#5DBBE5;" d="M849.9,745.4c-7.5-10-8.7-23.7-3.7-36.2c121.2-249.8,94.9-463.4-82.4-650.8
				C750,44.7,751.2,22.2,765,9.7C778.7-4,801.2-2.8,813.7,11c196.1,208.6,227.3,453.4,93.7,729.5c-8.7,17.5-28.7,25-46.2,16.2
				C857.4,752.9,853.7,749.2,849.9,745.4z"/>
		</g>
	</g>
	<g id="XMLID_335_">
		<g>
			<path id="XMLID_17_" style="fill:#FF6E82;" d="M1259.6,1190.1c13.7,3.7,30,0,41.2-11.2c224.8-236.1,469.7-294.8,748.2-178.6
				c21.2,8.7,45-1.2,53.7-22.5c8.7-21.2-1.2-45-22.5-53.7c-309.8-129.9-592.1-63.7-839.4,197.4c-15,16.2-15,42.5,1.2,57.5
				C1248.4,1185.1,1253.4,1187.6,1259.6,1190.1z"/>
		</g>
	</g>
	<path id="XMLID_332_" style="fill:#E26C7F;" d="M1289.6,436.9c-26.2,26.2-70,26.2-96.2,0c-26.2-26.2-26.2-70,0-96.2
		c26.2-26.2,70-26.2,96.2,0C1315.8,367,1315.8,410.7,1289.6,436.9z"/>
	<circle id="XMLID_329_" style="fill:#F9AE2A;" cx="661.3" cy="255.8" r="68.7"/>
	<path id="XMLID_328_" style="fill:#5DBBE5;" d="M1398.3,135.9c-20,20-52.5,20-72.4,0c-20-20-20-52.5,0-72.4s52.5-20,72.4,0
		C1418.3,83.4,1418.3,115.9,1398.3,135.9z"/>
	<circle id="XMLID_327_" style="fill:#5DBBE5;" cx="399" cy="578.1" r="51.2"/>
	<path id="XMLID_321_" style="fill:#F9AE2A;" d="M2167.7,1188.9c-21.2,21.2-56.2,21.2-78.7,0c-21.2-21.2-21.2-56.2,0-78.7
		c21.2-21.2,56.2-21.2,78.7,0C2190.2,1132.7,2190.2,1167.6,2167.7,1188.9z"/>
	<path id="XMLID_1_" style="fill:#F9AE2A;" d="M1508.2,1870.9c-21.2,21.2-56.2,21.2-78.7,0c-21.2-21.2-21.2-56.2,0-78.7
		c21.2-21.2,56.2-21.2,78.7,0C1529.4,1814.7,1529.4,1849.7,1508.2,1870.9z"/>
	<circle id="XMLID_318_" style="fill:#E26C7F;" cx="991.1" cy="2112" r="72.4"/>
	<path id="XMLID_317_" style="fill:#5DBBE5;" d="M2135.3,630.5c-21.2,21.2-56.2,21.2-78.7,0c-21.2-21.2-21.2-56.2,0-78.7
		c21.2-21.2,56.2-21.2,78.7,0C2156.5,573.1,2156.5,609.3,2135.3,630.5z"/>
	<path style="fill:#BEA4FF;" d="M1897.9,449.4L1897.9,449.4c-25,20-53.7,26.2-83.7,18.7c-23.7-5-45-13.7-62.5-30l-15-17.5
		c-12.5-13.7-26.2-22.5-40-26.2c-7.5-1.2-15,1.2-23.7,8.7c-8.7,6.2-11.2,13.7-10,21.2c1.2,15,6.2,28.7,16.2,43.7
		c22.5,28.7,35,57.5,36.2,88.7c1.2,30-10,55-32.5,74.9c-22.5,18.7-50,26.2-83.7,18.7c-22.5-6.2-42.5-16.2-60-31.2l-16.2-15
		c-10-13.7-23.7-22.5-40-26.2c-6.2-2.5-13.7-1.2-23.7,5c-8.7,6.2-13.7,15-11.2,27.5c1.2,12.5,7.5,26.2,20,42.5
		c11.2,16.2,10,30-3.7,42.5c-13.7,12.5-28.7,13.7-45,2.5l-2.5-6.2c-22.5-25-33.7-53.7-35-84.9c0-31.2,10-56.2,32.5-76.2
		c22.5-18.7,50-25,81.2-18.7c31.2,6.2,57.5,22.5,78.7,46.2c10,13.7,22.5,22.5,37.5,23.7c7.5,3.7,15,2.5,23.7-2.5
		c7.5-6.2,11.2-15,11.2-27.5s-6.2-25-17.5-37.5l-2.5-2.5c-20-25-30-53.7-32.5-84.9c-2.5-31.2,8.7-56.2,31.2-77.4
		c23.7-20,50-26.2,79.9-20c30,7.5,56.2,22.5,78.7,48.7c11.2,12.5,23.7,21.2,37.5,23.7c8.7,2.5,17.5,0,26.2-6.2
		c8.7-6.2,11.2-13.7,10-21.2c-1.2-15-7.5-30-18.7-46.2s-10-30,6.2-42.5c15-12.5,30-13.7,45-1.2c21.2,27.5,32.5,56.2,35,87.4
		C1930.4,404.4,1920.4,429.4,1897.9,449.4z"/>
	<path style="fill:#E26C7F;" d="M2390.1,1641.1L2390.1,1641.1c-32.5-2.5-57.5-17.5-74.9-42.5c-15-20-23.7-41.2-26.2-63.7l1.2-22.5
		c0-18.7-3.7-35-11.2-46.2c-5-6.2-12.5-8.7-23.7-10c-11.2-1.2-17.5,2.5-21.2,8.7c-8.7,11.2-15,26.2-17.5,43.7
		c-2.5,36.2-13.7,66.2-33.7,88.7c-20,23.7-45,35-73.7,33.7c-30-1.2-55-15-74.9-42.5c-12.5-20-20-41.2-22.5-63.7l-2.5-22.5
		c2.5-17.5-1.2-32.5-11.2-46.2c-2.5-6.2-10-10-20-12.5c-11.2-2.5-20,2.5-27.5,12.5c-7.5,10-12.5,25-13.7,45
		c-2.5,18.7-12.5,28.7-31.2,28.7s-31.2-8.7-35-27.5l2.5-6.2c0-33.7,11.2-62.5,32.5-86.2c21.2-23.7,46.2-35,76.2-33.7
		c30,1.2,53.7,15,72.4,41.2c18.7,26.2,27.5,56.2,27.5,87.4c-2.5,17.5,1.2,31.2,11.2,43.7c2.5,7.5,8.7,12.5,18.7,13.7
		c10,1.2,18.7-2.5,27.5-12.5s12.5-22.5,13.7-40v-3.7c2.5-32.5,13.7-60,33.7-84.9c20-23.7,45-36.2,74.9-35c31.2,1.2,55,13.7,72.4,40
		c17.5,25,26.2,55,25,88.7c0,17.5,3.7,31.2,11.2,43.7c5,7.5,12.5,12.5,23.7,13.7c11.2,1.2,17.5-2.5,21.2-8.7
		c8.7-11.2,15-27.5,17.5-46.2c2.5-18.7,13.7-28.7,33.7-27.5c20,1.2,31.2,11.2,33.7,30c-2.5,33.7-13.7,63.7-33.7,87.4
		C2445,1631.1,2420.1,1642.3,2390.1,1641.1z"/>
</g>
</svg>
